<svg width="320" height="22" viewBox="0 0 320 22" fill="none" xmlns="http://www.w3.org/2000/svg">
<rect width="5" height="22" fill="#1FC16B"/>
<rect x="9" width="5" height="22" fill="#1FC16B"/>
<rect x="18" width="5" height="22" fill="#1FC16B"/>
<rect x="27" width="5" height="22" fill="#1FC16B"/>
<rect x="36" width="5" height="22" fill="#1FC16B"/>
<rect x="45" width="5" height="22" fill="#1FC16B"/>
<rect x="54" width="5" height="22" fill="#1FC16B"/>
<rect x="63" width="5" height="22" fill="#1FC16B"/>
<rect x="72" width="5" height="22" fill="#1FC16B"/>
<rect x="81" width="5" height="22" fill="#1FC16B"/>
<rect x="90" width="5" height="22" fill="#1FC16B"/>
<rect x="99" width="5" height="22" fill="#1FC16B"/>
<rect x="108" width="5" height="22" fill="#1FC16B"/>
<rect x="117" width="5" height="22" fill="#1FC16B"/>
<rect x="126" width="5" height="22" fill="#1FC16B"/>
<rect x="135" width="5" height="22" fill="#1FC16B"/>
<rect x="144" width="5" height="22" fill="#1FC16B"/>
<rect x="153" width="5" height="22" fill="#1FC16B"/>
<rect x="162" width="5" height="22" fill="#1FC16B"/>
<rect x="171" width="5" height="22" fill="#1FC16B"/>
<rect x="180" width="5" height="22" fill="#1FC16B"/>
<rect x="189" width="5" height="22" fill="#1FC16B"/>
<rect x="198" width="5" height="22" fill="#1FC16B"/>
<rect x="207" width="5" height="22" fill="#1FC16B"/>
<rect x="216" width="5" height="22" fill="#1FC16B"/>
<rect x="225" width="5" height="22" fill="#E1E4EA"/>
<rect x="234" width="5" height="22" fill="#E1E4EA"/>
<rect x="243" width="5" height="22" fill="#E1E4EA"/>
<rect x="252" width="5" height="22" fill="#E1E4EA"/>
<rect x="261" width="5" height="22" fill="#E1E4EA"/>
<rect x="270" width="5" height="22" fill="#E1E4EA"/>
<rect x="279" width="5" height="22" fill="#E1E4EA"/>
<rect x="288" width="5" height="22" fill="#E1E4EA"/>
<rect x="297" width="5" height="22" fill="#E1E4EA"/>
<rect x="306" width="5" height="22" fill="#E1E4EA"/>
<rect x="315" width="5" height="22" fill="#E1E4EA"/>
</svg>
