<svg width="48" height="48" viewBox="0 0 48 48" fill="none" xmlns="http://www.w3.org/2000/svg">
<path d="M48 24C48 37.2548 37.2548 48 24 48C10.7452 48 0 37.2548 0 24C0 10.7452 10.7452 0 24 0C37.2548 0 48 10.7452 48 24ZM6.72 24C6.72 33.5435 14.4565 41.28 24 41.28C33.5435 41.28 41.28 33.5435 41.28 24C41.28 14.4565 33.5435 6.72 24 6.72C14.4565 6.72 6.72 14.4565 6.72 24Z" fill="#E1E4EA"/>
<path d="M24 0C27.1517 3.75839e-08 30.2726 0.620779 33.1844 1.82689C36.0962 3.033 38.742 4.80083 40.9706 7.02944C43.1992 9.25805 44.967 11.9038 46.1731 14.8156C47.3792 17.7274 48 20.8483 48 24C48 27.1517 47.3792 30.2726 46.1731 33.1844C44.967 36.0962 43.1992 38.742 40.9706 40.9706C38.742 43.1992 36.0962 44.967 33.1844 46.1731C30.2726 47.3792 27.1517 48 24 48L24 41.28C26.2692 41.28 28.5163 40.833 30.6128 39.9646C32.7093 39.0962 34.6142 37.8234 36.2188 36.2188C37.8234 34.6142 39.0962 32.7093 39.9646 30.6128C40.833 28.5163 41.28 26.2692 41.28 24C41.28 21.7308 40.833 19.4837 39.9646 17.3872C39.0962 15.2907 37.8234 13.3858 36.2188 11.7812C34.6142 10.1766 32.7093 8.90376 30.6128 8.03536C28.5163 7.16696 26.2692 6.72 24 6.72V0Z" fill="#335CFF"/>
</svg>
