<svg width="17" height="21" viewBox="0 0 17 21" fill="none" xmlns="http://www.w3.org/2000/svg">
<path d="M12.6027 -1.57244e-07C14.9352 2.87918 16.2055 6.47356 16.2 10.179C16.2 14.0355 14.8527 17.577 12.6027 20.358L11.2023 19.2276C13.2758 16.6682 14.405 13.4729 14.4 10.179C14.4 6.7509 13.203 3.6036 11.2023 1.1304L12.6027 -1.57244e-07ZM9.10169 2.8269C10.7865 4.90644 11.704 7.50262 11.7 10.179C11.7 12.9636 10.7271 15.5214 9.10259 17.5311L7.70219 16.3998C9.1275 14.6402 9.90358 12.4435 9.89999 10.179C9.89999 7.8228 9.07649 5.6583 7.70219 3.9582L9.10259 2.8269L9.10169 2.8269ZM5.60069 5.6547C6.63759 6.93436 7.20233 8.53198 7.19999 10.179C7.19999 11.8926 6.60149 13.4667 5.60159 14.7033L4.20119 13.572C4.97859 12.6122 5.40191 11.4141 5.39999 10.179C5.39999 8.8938 4.95089 7.713 4.20119 6.786L5.60159 5.6547L5.60069 5.6547ZM2.09969 8.4825C2.48875 8.96224 2.70073 9.56133 2.69999 10.179C2.69999 10.8216 2.47499 11.412 2.10059 11.8755L-6.16698e-06 10.179L2.10059 8.4825L2.09969 8.4825Z" fill="#99A0AE"/>
</svg>
