<svg width="128" height="124" viewBox="0 0 128 124" fill="none" xmlns="http://www.w3.org/2000/svg">
<mask id="path-1-outside-1_163_746" maskUnits="userSpaceOnUse" x="0" y="-2" width="128" height="128" fill="black">
<rect fill="white" y="-2" width="128" height="128"/>
<path d="M2 124C2 91.1131 15.0643 59.5733 38.3188 36.3188C61.5733 13.0642 93.1132 -3.92172e-07 126 0V24.8C99.6905 24.8 74.4586 35.2514 55.855 53.855C37.2514 72.4586 26.8 97.6905 26.8 124H2Z"/>
</mask>
<path d="M2 124C2 91.1131 15.0643 59.5733 38.3188 36.3188C61.5733 13.0642 93.1132 -3.92172e-07 126 0V24.8C99.6905 24.8 74.4586 35.2514 55.855 53.855C37.2514 72.4586 26.8 97.6905 26.8 124H2Z" fill="#335CFF"/>
<path d="M2 124C2 91.1131 15.0643 59.5733 38.3188 36.3188C61.5733 13.0642 93.1132 -3.92172e-07 126 0V24.8C99.6905 24.8 74.4586 35.2514 55.855 53.855C37.2514 72.4586 26.8 97.6905 26.8 124H2Z" stroke="white" stroke-width="4" mask="url(#path-1-outside-1_163_746)"/>
</svg>
