<svg width="252" height="124" viewBox="0 0 252 124" fill="none" xmlns="http://www.w3.org/2000/svg">
<mask id="path-1-outside-1_163_744" maskUnits="userSpaceOnUse" x="0" y="-2" width="252" height="128" fill="black">
<rect fill="white" y="-2" width="252" height="128"/>
<path d="M2 124C2 107.716 5.20736 91.5916 11.4389 76.5472C17.6705 61.5029 26.8043 47.8332 38.3188 36.3187C49.8332 24.8043 63.5029 15.6705 78.5473 9.43893C93.5916 3.20735 109.716 -2.13538e-06 126 0C142.284 2.13538e-06 158.408 3.20736 173.453 9.43894C188.497 15.6705 202.167 24.8043 213.681 36.3188C225.196 47.8332 234.329 61.5029 240.561 76.5473C246.793 91.5916 250 107.716 250 124L225.2 124C225.2 110.973 222.634 98.0733 217.649 86.0378C212.664 74.0023 205.357 63.0666 196.145 53.855C186.933 44.6434 175.998 37.3364 163.962 32.3512C151.927 27.3659 139.027 24.8 126 24.8C112.973 24.8 100.073 27.3659 88.0378 32.3511C76.0023 37.3364 65.0666 44.6434 55.855 53.855C46.6434 63.0666 39.3364 74.0023 34.3512 86.0378C29.3659 98.0733 26.8 110.973 26.8 124H2Z"/>
</mask>
<path d="M2 124C2 107.716 5.20736 91.5916 11.4389 76.5472C17.6705 61.5029 26.8043 47.8332 38.3188 36.3187C49.8332 24.8043 63.5029 15.6705 78.5473 9.43893C93.5916 3.20735 109.716 -2.13538e-06 126 0C142.284 2.13538e-06 158.408 3.20736 173.453 9.43894C188.497 15.6705 202.167 24.8043 213.681 36.3188C225.196 47.8332 234.329 61.5029 240.561 76.5473C246.793 91.5916 250 107.716 250 124L225.2 124C225.2 110.973 222.634 98.0733 217.649 86.0378C212.664 74.0023 205.357 63.0666 196.145 53.855C186.933 44.6434 175.998 37.3364 163.962 32.3512C151.927 27.3659 139.027 24.8 126 24.8C112.973 24.8 100.073 27.3659 88.0378 32.3511C76.0023 37.3364 65.0666 44.6434 55.855 53.855C46.6434 63.0666 39.3364 74.0023 34.3512 86.0378C29.3659 98.0733 26.8 110.973 26.8 124H2Z" fill="#E1E4EA"/>
<path d="M2 124C2 107.716 5.20736 91.5916 11.4389 76.5472C17.6705 61.5029 26.8043 47.8332 38.3188 36.3187C49.8332 24.8043 63.5029 15.6705 78.5473 9.43893C93.5916 3.20735 109.716 -2.13538e-06 126 0C142.284 2.13538e-06 158.408 3.20736 173.453 9.43894C188.497 15.6705 202.167 24.8043 213.681 36.3188C225.196 47.8332 234.329 61.5029 240.561 76.5473C246.793 91.5916 250 107.716 250 124L225.2 124C225.2 110.973 222.634 98.0733 217.649 86.0378C212.664 74.0023 205.357 63.0666 196.145 53.855C186.933 44.6434 175.998 37.3364 163.962 32.3512C151.927 27.3659 139.027 24.8 126 24.8C112.973 24.8 100.073 27.3659 88.0378 32.3511C76.0023 37.3364 65.0666 44.6434 55.855 53.855C46.6434 63.0666 39.3364 74.0023 34.3512 86.0378C29.3659 98.0733 26.8 110.973 26.8 124H2Z" stroke="white" stroke-width="4" mask="url(#path-1-outside-1_163_744)"/>
</svg>
